<svg width="48" height="48" viewBox="0 0 48 48" fill="none" xmlns="http://www.w3.org/2000/svg">
<mask id="mask0_772_845" style="mask-type:alpha" maskUnits="userSpaceOnUse" x="0" y="0" width="48" height="48">
<rect width="48" height="48" fill="#D9D9D9"/>
</mask>
<g mask="url(#mask0_772_845)">
<circle cx="24" cy="24" r="20" fill="white"/>
<path d="M14.85 34.15L27.35 28.3C27.55 28.2 27.7333 28.0667 27.9 27.9C28.0667 27.7333 28.2 27.55 28.3 27.35L34.15 14.85C34.2833 14.55 34.2253 14.2747 33.976 14.024C33.7253 13.7747 33.45 13.7167 33.15 13.85L20.65 19.7C20.45 19.8 20.2667 19.9333 20.1 20.1C19.9333 20.2667 19.8 20.45 19.7 20.65L13.85 33.15C13.7167 33.45 13.7753 33.7253 14.026 33.976C14.2753 34.2253 14.55 34.2833 14.85 34.15ZM24 26C23.4333 26 22.9587 25.808 22.576 25.424C22.192 25.0413 22 24.5667 22 24C22 23.4333 22.192 22.958 22.576 22.574C22.9587 22.1913 23.4333 22 24 22C24.5667 22 25.042 22.1913 25.426 22.574C25.8087 22.958 26 23.4333 26 24C26 24.5667 25.8087 25.0413 25.426 25.424C25.042 25.808 24.5667 26 24 26ZM24 44C21.2333 44 18.6333 43.4747 16.2 42.424C13.7667 41.3747 11.65 39.95 9.85 38.15C8.05 36.35 6.62533 34.2333 5.576 31.8C4.52533 29.3667 4 26.7667 4 24C4 21.2333 4.52533 18.6333 5.576 16.2C6.62533 13.7667 8.05 11.65 9.85 9.85C11.65 8.05 13.7667 6.62467 16.2 5.574C18.6333 4.52467 21.2333 4 24 4C26.7667 4 29.3667 4.52467 31.8 5.574C34.2333 6.62467 36.35 8.05 38.15 9.85C39.95 11.65 41.3747 13.7667 42.424 16.2C43.4747 18.6333 44 21.2333 44 24C44 26.7667 43.4747 29.3667 42.424 31.8C41.3747 34.2333 39.95 36.35 38.15 38.15C36.35 39.95 34.2333 41.3747 31.8 42.424C29.3667 43.4747 26.7667 44 24 44Z" fill="#585858"/>
</g>
</svg>
