<svg width="16" height="16" viewBox="0 0 16 16" fill="none" xmlns="http://www.w3.org/2000/svg">
<mask id="mask0_1750_3297" style="mask-type:alpha" maskUnits="userSpaceOnUse" x="0" y="0" width="16" height="16">
<rect width="16" height="16" fill="#D9D9D9"/>
</mask>
<g mask="url(#mask0_1750_3297)">
<path d="M8.00008 14.4168C7.91119 14.4168 7.8223 14.4002 7.73341 14.3668C7.64453 14.3335 7.56675 14.2891 7.50008 14.2335C5.87786 12.8002 4.66675 11.4697 3.86675 10.2422C3.06675 9.01416 2.66675 7.86683 2.66675 6.80016C2.66675 5.1335 3.20297 3.80572 4.27541 2.81683C5.34741 1.82794 6.58897 1.3335 8.00008 1.3335C9.41119 1.3335 10.6527 1.82794 11.7247 2.81683C12.7972 3.80572 13.3334 5.1335 13.3334 6.80016C13.3334 7.86683 12.9334 9.01416 12.1334 10.2422C11.3334 11.4697 10.1223 12.8002 8.50008 14.2335C8.43341 14.2891 8.35564 14.3335 8.26675 14.3668C8.17786 14.4002 8.08897 14.4168 8.00008 14.4168Z" fill="#FF5B15"/>
</g>
<mask id="mask1_1750_3297" style="mask-type:alpha" maskUnits="userSpaceOnUse" x="5" y="4" width="6" height="6">
<rect x="5.33325" y="4.6665" width="5.33333" height="5.33333" fill="#D9D9D9"/>
</mask>
<g mask="url(#mask1_1750_3297)">
<path d="M9.33328 9.55528C9.27032 9.55528 9.21758 9.53395 9.17506 9.49128C9.13239 9.44877 9.11106 9.39602 9.11106 9.33306V7.77751H8.88883C8.76661 7.77751 8.66202 7.73395 8.57506 7.64684C8.48795 7.55988 8.44439 7.45528 8.44439 7.33306V6.22195C8.44439 5.91454 8.55276 5.65254 8.7695 5.43595C8.98609 5.21921 9.24809 5.11084 9.5555 5.11084V9.33306C9.5555 9.39602 9.53417 9.44877 9.4915 9.49128C9.44898 9.53395 9.39624 9.55528 9.33328 9.55528ZM7.11106 9.55528C7.04809 9.55528 6.99528 9.53395 6.95261 9.49128C6.91009 9.44877 6.88883 9.39602 6.88883 9.33306V7.52195C6.69995 7.4701 6.54165 7.3664 6.41395 7.21084C6.28609 7.05528 6.22217 6.8738 6.22217 6.6664V5.33306C6.22217 5.2701 6.24343 5.21728 6.28595 5.17462C6.32861 5.1321 6.38143 5.11084 6.44439 5.11084C6.50735 5.11084 6.56017 5.1321 6.60283 5.17462C6.64535 5.21728 6.66661 5.2701 6.66661 5.33306V6.6664H6.88883V5.33306C6.88883 5.2701 6.91009 5.21728 6.95261 5.17462C6.99528 5.1321 7.04809 5.11084 7.11106 5.11084C7.17402 5.11084 7.22683 5.1321 7.2695 5.17462C7.31202 5.21728 7.33328 5.2701 7.33328 5.33306V6.6664H7.5555V5.33306C7.5555 5.2701 7.57683 5.21728 7.6195 5.17462C7.66202 5.1321 7.71476 5.11084 7.77772 5.11084C7.84069 5.11084 7.8935 5.1321 7.93617 5.17462C7.97869 5.21728 7.99995 5.2701 7.99995 5.33306V6.6664C7.99995 6.8738 7.93602 7.05528 7.80817 7.21084C7.68046 7.3664 7.52217 7.4701 7.33328 7.52195V9.33306C7.33328 9.39602 7.31202 9.44877 7.2695 9.49128C7.22683 9.53395 7.17402 9.55528 7.11106 9.55528Z" fill="white"/>
</g>
</svg>
