<svg width="36" height="39" viewBox="0 0 36 39" fill="none" xmlns="http://www.w3.org/2000/svg">
<g filter="url(#filter0_d_785_1364)">
<mask id="mask0_785_1364" style="mask-type:alpha" maskUnits="userSpaceOnUse" x="0" y="0" width="36" height="36">
<rect width="36" height="36" fill="#D9D9D9"/>
</mask>
<g mask="url(#mask0_785_1364)">
<path d="M18 32.4375C17.8 32.4375 17.6 32.4 17.4 32.325C17.2 32.25 17.025 32.15 16.875 32.025C13.225 28.8 10.5 25.8065 8.7 23.0445C6.9 20.2815 6 17.7 6 15.3C6 11.55 7.2065 8.5625 9.6195 6.3375C12.0315 4.1125 14.825 3 18 3C21.175 3 23.9685 4.1125 26.3805 6.3375C28.7935 8.5625 30 11.55 30 15.3C30 17.7 29.1 20.2815 27.3 23.0445C25.5 25.8065 22.775 28.8 19.125 32.025C18.975 32.15 18.8 32.25 18.6 32.325C18.4 32.4 18.2 32.4375 18 32.4375Z" fill="#FFBA09"/>
</g>
<mask id="mask1_785_1364" style="mask-type:alpha" maskUnits="userSpaceOnUse" x="12" y="10" width="12" height="13">
<rect x="12" y="10.5" width="12" height="12" fill="#D9D9D9"/>
</mask>
<g mask="url(#mask1_785_1364)">
<path d="M21 21.5C20.8583 21.5 20.7397 21.452 20.644 21.356C20.548 21.2603 20.5 21.1417 20.5 21V17.5H20C19.725 17.5 19.4897 17.402 19.294 17.206C19.098 17.0103 19 16.775 19 16.5V14C19 13.3083 19.2438 12.7188 19.7315 12.2315C20.2188 11.7438 20.8083 11.5 21.5 11.5V21C21.5 21.1417 21.452 21.2603 21.356 21.356C21.2603 21.452 21.1417 21.5 21 21.5ZM16 21.5C15.8583 21.5 15.7395 21.452 15.6435 21.356C15.5478 21.2603 15.5 21.1417 15.5 21V16.925C15.075 16.8083 14.7188 16.575 14.4315 16.225C14.1438 15.875 14 15.4667 14 15V12C14 11.8583 14.0478 11.7395 14.1435 11.6435C14.2395 11.5478 14.3583 11.5 14.5 11.5C14.6417 11.5 14.7605 11.5478 14.8565 11.6435C14.9522 11.7395 15 11.8583 15 12V15H15.5V12C15.5 11.8583 15.5478 11.7395 15.6435 11.6435C15.7395 11.5478 15.8583 11.5 16 11.5C16.1417 11.5 16.2605 11.5478 16.3565 11.6435C16.4522 11.7395 16.5 11.8583 16.5 12V15H17V12C17 11.8583 17.048 11.7395 17.144 11.6435C17.2397 11.5478 17.3583 11.5 17.5 11.5C17.6417 11.5 17.7605 11.5478 17.8565 11.6435C17.9522 11.7395 18 11.8583 18 12V15C18 15.4667 17.8562 15.875 17.5685 16.225C17.2812 16.575 16.925 16.8083 16.5 16.925V21C16.5 21.1417 16.4522 21.2603 16.3565 21.356C16.2605 21.452 16.1417 21.5 16 21.5Z" fill="white"/>
</g>
</g>
<defs>
<filter id="filter0_d_785_1364" x="-4" y="-2" width="44" height="44" filterUnits="userSpaceOnUse" color-interpolation-filters="sRGB">
<feFlood flood-opacity="0" result="BackgroundImageFix"/>
<feColorMatrix in="SourceAlpha" type="matrix" values="0 0 0 0 0 0 0 0 0 0 0 0 0 0 0 0 0 0 127 0" result="hardAlpha"/>
<feOffset dy="2"/>
<feGaussianBlur stdDeviation="2"/>
<feComposite in2="hardAlpha" operator="out"/>
<feColorMatrix type="matrix" values="0 0 0 0 0.670833 0 0 0 0 0.670833 0 0 0 0 0.670833 0 0 0 0.32 0"/>
<feBlend mode="normal" in2="BackgroundImageFix" result="effect1_dropShadow_785_1364"/>
<feBlend mode="normal" in="SourceGraphic" in2="effect1_dropShadow_785_1364" result="shape"/>
</filter>
</defs>
</svg>
